<mxfile host="app.diagrams.net" agent="Mozilla/5.0 (Windows NT 10.0; Win64; x64) AppleWebKit/537.36 (KHTML, like Gecko) Chrome/134.0.0.0 Safari/537.36 OPR/119.0.0.0" version="27.1.6">
  <diagram name="PÃ¡gina-1" id="8loe4KsNV_EKxlekJNdM">
    <mxGraphModel dx="2044" dy="1196" grid="1" gridSize="10" guides="1" tooltips="1" connect="1" arrows="1" fold="1" page="1" pageScale="1" pageWidth="827" pageHeight="1169" math="0" shadow="0">
      <root>
        <mxCell id="0" />
        <mxCell id="1" parent="0" />
        <mxCell id="wCNE585S87sCHi-Y6KFf-53" style="edgeStyle=orthogonalEdgeStyle;rounded=0;orthogonalLoop=1;jettySize=auto;html=1;entryX=1;entryY=0.5;entryDx=0;entryDy=0;" edge="1" parent="1" source="cfNvjKSxgFuLiAWqWSHC-1" target="wCNE585S87sCHi-Y6KFf-15">
          <mxGeometry relative="1" as="geometry" />
        </mxCell>
        <mxCell id="wCNE585S87sCHi-Y6KFf-56" value="Serializa" style="edgeLabel;html=1;align=center;verticalAlign=middle;resizable=0;points=[];" vertex="1" connectable="0" parent="wCNE585S87sCHi-Y6KFf-53">
          <mxGeometry x="0.1644" y="-3" relative="1" as="geometry">
            <mxPoint as="offset" />
          </mxGeometry>
        </mxCell>
        <mxCell id="wCNE585S87sCHi-Y6KFf-61" value="1" style="edgeLabel;html=1;align=center;verticalAlign=middle;resizable=0;points=[];" vertex="1" connectable="0" parent="wCNE585S87sCHi-Y6KFf-53">
          <mxGeometry x="-0.8596" relative="1" as="geometry">
            <mxPoint as="offset" />
          </mxGeometry>
        </mxCell>
        <mxCell id="wCNE585S87sCHi-Y6KFf-62" value="1..*" style="edgeLabel;html=1;align=center;verticalAlign=middle;resizable=0;points=[];" vertex="1" connectable="0" parent="wCNE585S87sCHi-Y6KFf-53">
          <mxGeometry x="0.8524" y="1" relative="1" as="geometry">
            <mxPoint as="offset" />
          </mxGeometry>
        </mxCell>
        <mxCell id="wCNE585S87sCHi-Y6KFf-54" style="edgeStyle=orthogonalEdgeStyle;rounded=0;orthogonalLoop=1;jettySize=auto;html=1;entryX=1;entryY=0.5;entryDx=0;entryDy=0;" edge="1" parent="1" source="cfNvjKSxgFuLiAWqWSHC-1" target="wCNE585S87sCHi-Y6KFf-22">
          <mxGeometry relative="1" as="geometry" />
        </mxCell>
        <mxCell id="wCNE585S87sCHi-Y6KFf-57" value="Serializa" style="edgeLabel;html=1;align=center;verticalAlign=middle;resizable=0;points=[];" vertex="1" connectable="0" parent="wCNE585S87sCHi-Y6KFf-54">
          <mxGeometry x="0.5188" relative="1" as="geometry">
            <mxPoint as="offset" />
          </mxGeometry>
        </mxCell>
        <mxCell id="wCNE585S87sCHi-Y6KFf-63" value="1..*" style="edgeLabel;html=1;align=center;verticalAlign=middle;resizable=0;points=[];" vertex="1" connectable="0" parent="wCNE585S87sCHi-Y6KFf-54">
          <mxGeometry x="0.9238" y="1" relative="1" as="geometry">
            <mxPoint as="offset" />
          </mxGeometry>
        </mxCell>
        <mxCell id="cfNvjKSxgFuLiAWqWSHC-1" value="Persistencia" style="rounded=0;whiteSpace=wrap;html=1;" parent="1" vertex="1">
          <mxGeometry x="1450" y="400" width="120" height="60" as="geometry" />
        </mxCell>
        <mxCell id="8TDIL2olZ708_3ujhwu4-5" style="edgeStyle=orthogonalEdgeStyle;rounded=0;orthogonalLoop=1;jettySize=auto;html=1;entryX=-0.008;entryY=0.795;entryDx=0;entryDy=0;entryPerimeter=0;" parent="1" source="cfNvjKSxgFuLiAWqWSHC-2" target="wCNE585S87sCHi-Y6KFf-8" edge="1">
          <mxGeometry relative="1" as="geometry">
            <mxPoint x="890" y="264" as="targetPoint" />
          </mxGeometry>
        </mxCell>
        <mxCell id="8TDIL2olZ708_3ujhwu4-6" value="Registra" style="edgeLabel;html=1;align=center;verticalAlign=middle;resizable=0;points=[];" parent="8TDIL2olZ708_3ujhwu4-5" vertex="1" connectable="0">
          <mxGeometry x="-0.5281" y="3" relative="1" as="geometry">
            <mxPoint as="offset" />
          </mxGeometry>
        </mxCell>
        <mxCell id="8s1A1wWxofZtqTntMRIn-34" value="1" style="edgeLabel;html=1;align=center;verticalAlign=middle;resizable=0;points=[];" parent="8TDIL2olZ708_3ujhwu4-5" vertex="1" connectable="0">
          <mxGeometry x="-0.9303" y="3" relative="1" as="geometry">
            <mxPoint as="offset" />
          </mxGeometry>
        </mxCell>
        <mxCell id="8s1A1wWxofZtqTntMRIn-35" value="0..*" style="edgeLabel;html=1;align=center;verticalAlign=middle;resizable=0;points=[];" parent="8TDIL2olZ708_3ujhwu4-5" vertex="1" connectable="0">
          <mxGeometry x="0.8786" y="-4" relative="1" as="geometry">
            <mxPoint as="offset" />
          </mxGeometry>
        </mxCell>
        <mxCell id="wCNE585S87sCHi-Y6KFf-34" style="edgeStyle=orthogonalEdgeStyle;rounded=0;orthogonalLoop=1;jettySize=auto;html=1;entryX=0;entryY=0.5;entryDx=0;entryDy=0;" edge="1" parent="1" source="cfNvjKSxgFuLiAWqWSHC-2" target="wCNE585S87sCHi-Y6KFf-22">
          <mxGeometry relative="1" as="geometry" />
        </mxCell>
        <mxCell id="wCNE585S87sCHi-Y6KFf-38" value="Registra" style="edgeLabel;html=1;align=center;verticalAlign=middle;resizable=0;points=[];" vertex="1" connectable="0" parent="wCNE585S87sCHi-Y6KFf-34">
          <mxGeometry x="0.0447" y="4" relative="1" as="geometry">
            <mxPoint as="offset" />
          </mxGeometry>
        </mxCell>
        <mxCell id="wCNE585S87sCHi-Y6KFf-76" value="0..*" style="edgeLabel;html=1;align=center;verticalAlign=middle;resizable=0;points=[];" vertex="1" connectable="0" parent="wCNE585S87sCHi-Y6KFf-34">
          <mxGeometry x="0.8908" relative="1" as="geometry">
            <mxPoint as="offset" />
          </mxGeometry>
        </mxCell>
        <mxCell id="cfNvjKSxgFuLiAWqWSHC-2" value="Controlador" style="rounded=0;whiteSpace=wrap;html=1;" parent="1" vertex="1">
          <mxGeometry x="790" y="380" width="120" height="60" as="geometry" />
        </mxCell>
        <mxCell id="wCNE585S87sCHi-Y6KFf-7" value="Conta Fixa" style="swimlane;fontStyle=1;align=center;verticalAlign=top;childLayout=stackLayout;horizontal=1;startSize=26;horizontalStack=0;resizeParent=1;resizeParentMax=0;resizeLast=0;collapsible=1;marginBottom=0;whiteSpace=wrap;html=1;" vertex="1" parent="1">
          <mxGeometry x="1043.5" y="100" width="160" height="112" as="geometry" />
        </mxCell>
        <mxCell id="wCNE585S87sCHi-Y6KFf-8" value="- nome: String" style="text;strokeColor=none;fillColor=none;align=left;verticalAlign=top;spacingLeft=4;spacingRight=4;overflow=hidden;rotatable=0;points=[[0,0.5],[1,0.5]];portConstraint=eastwest;whiteSpace=wrap;html=1;" vertex="1" parent="wCNE585S87sCHi-Y6KFf-7">
          <mxGeometry y="26" width="160" height="26" as="geometry" />
        </mxCell>
        <mxCell id="wCNE585S87sCHi-Y6KFf-9" value="- data: String" style="text;strokeColor=none;fillColor=none;align=left;verticalAlign=top;spacingLeft=4;spacingRight=4;overflow=hidden;rotatable=0;points=[[0,0.5],[1,0.5]];portConstraint=eastwest;whiteSpace=wrap;html=1;" vertex="1" parent="wCNE585S87sCHi-Y6KFf-7">
          <mxGeometry y="52" width="160" height="26" as="geometry" />
        </mxCell>
        <mxCell id="wCNE585S87sCHi-Y6KFf-10" value="- valor: int" style="text;strokeColor=none;fillColor=none;align=left;verticalAlign=top;spacingLeft=4;spacingRight=4;overflow=hidden;rotatable=0;points=[[0,0.5],[1,0.5]];portConstraint=eastwest;whiteSpace=wrap;html=1;" vertex="1" parent="wCNE585S87sCHi-Y6KFf-7">
          <mxGeometry y="78" width="160" height="26" as="geometry" />
        </mxCell>
        <mxCell id="wCNE585S87sCHi-Y6KFf-11" value="" style="line;strokeWidth=1;fillColor=none;align=left;verticalAlign=middle;spacingTop=-1;spacingLeft=3;spacingRight=3;rotatable=0;labelPosition=right;points=[];portConstraint=eastwest;strokeColor=inherit;" vertex="1" parent="wCNE585S87sCHi-Y6KFf-7">
          <mxGeometry y="104" width="160" height="8" as="geometry" />
        </mxCell>
        <mxCell id="wCNE585S87sCHi-Y6KFf-12" value="Conta de Luz" style="swimlane;fontStyle=1;align=center;verticalAlign=top;childLayout=stackLayout;horizontal=1;startSize=26;horizontalStack=0;resizeParent=1;resizeParentMax=0;resizeLast=0;collapsible=1;marginBottom=0;whiteSpace=wrap;html=1;" vertex="1" parent="1">
          <mxGeometry x="1043.5" y="260" width="160" height="130" as="geometry" />
        </mxCell>
        <mxCell id="wCNE585S87sCHi-Y6KFf-13" value="- nome: String" style="text;strokeColor=none;fillColor=none;align=left;verticalAlign=top;spacingLeft=4;spacingRight=4;overflow=hidden;rotatable=0;points=[[0,0.5],[1,0.5]];portConstraint=eastwest;whiteSpace=wrap;html=1;" vertex="1" parent="wCNE585S87sCHi-Y6KFf-12">
          <mxGeometry y="26" width="160" height="26" as="geometry" />
        </mxCell>
        <mxCell id="wCNE585S87sCHi-Y6KFf-14" value="- data: String" style="text;strokeColor=none;fillColor=none;align=left;verticalAlign=top;spacingLeft=4;spacingRight=4;overflow=hidden;rotatable=0;points=[[0,0.5],[1,0.5]];portConstraint=eastwest;whiteSpace=wrap;html=1;" vertex="1" parent="wCNE585S87sCHi-Y6KFf-12">
          <mxGeometry y="52" width="160" height="26" as="geometry" />
        </mxCell>
        <mxCell id="wCNE585S87sCHi-Y6KFf-15" value="- valorkwh: int&lt;br&gt;&lt;br&gt;&lt;div&gt;&lt;br&gt;&lt;/div&gt;" style="text;strokeColor=none;fillColor=none;align=left;verticalAlign=top;spacingLeft=4;spacingRight=4;overflow=hidden;rotatable=0;points=[[0,0.5],[1,0.5]];portConstraint=eastwest;whiteSpace=wrap;html=1;" vertex="1" parent="wCNE585S87sCHi-Y6KFf-12">
          <mxGeometry y="78" width="160" height="26" as="geometry" />
        </mxCell>
        <mxCell id="wCNE585S87sCHi-Y6KFf-19" value="- valor: int&lt;br&gt;&lt;br&gt;&lt;div&gt;&lt;br&gt;&lt;/div&gt;" style="text;strokeColor=none;fillColor=none;align=left;verticalAlign=top;spacingLeft=4;spacingRight=4;overflow=hidden;rotatable=0;points=[[0,0.5],[1,0.5]];portConstraint=eastwest;whiteSpace=wrap;html=1;" vertex="1" parent="wCNE585S87sCHi-Y6KFf-12">
          <mxGeometry y="104" width="160" height="26" as="geometry" />
        </mxCell>
        <mxCell id="wCNE585S87sCHi-Y6KFf-20" value="Atividades" style="swimlane;fontStyle=1;align=center;verticalAlign=top;childLayout=stackLayout;horizontal=1;startSize=26;horizontalStack=0;resizeParent=1;resizeParentMax=0;resizeLast=0;collapsible=1;marginBottom=0;whiteSpace=wrap;html=1;" vertex="1" parent="1">
          <mxGeometry x="1050" y="460" width="160" height="112" as="geometry" />
        </mxCell>
        <mxCell id="wCNE585S87sCHi-Y6KFf-21" value="- nome: String" style="text;strokeColor=none;fillColor=none;align=left;verticalAlign=top;spacingLeft=4;spacingRight=4;overflow=hidden;rotatable=0;points=[[0,0.5],[1,0.5]];portConstraint=eastwest;whiteSpace=wrap;html=1;" vertex="1" parent="wCNE585S87sCHi-Y6KFf-20">
          <mxGeometry y="26" width="160" height="26" as="geometry" />
        </mxCell>
        <mxCell id="wCNE585S87sCHi-Y6KFf-22" value="- data: String" style="text;strokeColor=none;fillColor=none;align=left;verticalAlign=top;spacingLeft=4;spacingRight=4;overflow=hidden;rotatable=0;points=[[0,0.5],[1,0.5]];portConstraint=eastwest;whiteSpace=wrap;html=1;" vertex="1" parent="wCNE585S87sCHi-Y6KFf-20">
          <mxGeometry y="52" width="160" height="26" as="geometry" />
        </mxCell>
        <mxCell id="wCNE585S87sCHi-Y6KFf-23" value="- valor: int" style="text;strokeColor=none;fillColor=none;align=left;verticalAlign=top;spacingLeft=4;spacingRight=4;overflow=hidden;rotatable=0;points=[[0,0.5],[1,0.5]];portConstraint=eastwest;whiteSpace=wrap;html=1;" vertex="1" parent="wCNE585S87sCHi-Y6KFf-20">
          <mxGeometry y="78" width="160" height="26" as="geometry" />
        </mxCell>
        <mxCell id="wCNE585S87sCHi-Y6KFf-24" value="" style="line;strokeWidth=1;fillColor=none;align=left;verticalAlign=middle;spacingTop=-1;spacingLeft=3;spacingRight=3;rotatable=0;labelPosition=right;points=[];portConstraint=eastwest;strokeColor=inherit;" vertex="1" parent="wCNE585S87sCHi-Y6KFf-20">
          <mxGeometry y="104" width="160" height="8" as="geometry" />
        </mxCell>
        <mxCell id="wCNE585S87sCHi-Y6KFf-25" value="EletrodomÃ©sticos" style="swimlane;fontStyle=1;align=center;verticalAlign=top;childLayout=stackLayout;horizontal=1;startSize=26;horizontalStack=0;resizeParent=1;resizeParentMax=0;resizeLast=0;collapsible=1;marginBottom=0;whiteSpace=wrap;html=1;" vertex="1" parent="1">
          <mxGeometry x="1050" y="610" width="160" height="130" as="geometry" />
        </mxCell>
        <mxCell id="wCNE585S87sCHi-Y6KFf-26" value="- nome: String" style="text;strokeColor=none;fillColor=none;align=left;verticalAlign=top;spacingLeft=4;spacingRight=4;overflow=hidden;rotatable=0;points=[[0,0.5],[1,0.5]];portConstraint=eastwest;whiteSpace=wrap;html=1;" vertex="1" parent="wCNE585S87sCHi-Y6KFf-25">
          <mxGeometry y="26" width="160" height="26" as="geometry" />
        </mxCell>
        <mxCell id="wCNE585S87sCHi-Y6KFf-27" value="- consumo: int" style="text;strokeColor=none;fillColor=none;align=left;verticalAlign=top;spacingLeft=4;spacingRight=4;overflow=hidden;rotatable=0;points=[[0,0.5],[1,0.5]];portConstraint=eastwest;whiteSpace=wrap;html=1;" vertex="1" parent="wCNE585S87sCHi-Y6KFf-25">
          <mxGeometry y="52" width="160" height="26" as="geometry" />
        </mxCell>
        <mxCell id="wCNE585S87sCHi-Y6KFf-28" value="- tempoDeUso: int" style="text;strokeColor=none;fillColor=none;align=left;verticalAlign=top;spacingLeft=4;spacingRight=4;overflow=hidden;rotatable=0;points=[[0,0.5],[1,0.5]];portConstraint=eastwest;whiteSpace=wrap;html=1;" vertex="1" parent="wCNE585S87sCHi-Y6KFf-25">
          <mxGeometry y="78" width="160" height="26" as="geometry" />
        </mxCell>
        <mxCell id="wCNE585S87sCHi-Y6KFf-30" value="- watts: int" style="text;strokeColor=none;fillColor=none;align=left;verticalAlign=top;spacingLeft=4;spacingRight=4;overflow=hidden;rotatable=0;points=[[0,0.5],[1,0.5]];portConstraint=eastwest;whiteSpace=wrap;html=1;" vertex="1" parent="wCNE585S87sCHi-Y6KFf-25">
          <mxGeometry y="104" width="160" height="26" as="geometry" />
        </mxCell>
        <mxCell id="wCNE585S87sCHi-Y6KFf-32" style="edgeStyle=orthogonalEdgeStyle;rounded=0;orthogonalLoop=1;jettySize=auto;html=1;entryX=0.031;entryY=0.154;entryDx=0;entryDy=0;entryPerimeter=0;" edge="1" parent="1" source="cfNvjKSxgFuLiAWqWSHC-2" target="wCNE585S87sCHi-Y6KFf-15">
          <mxGeometry relative="1" as="geometry" />
        </mxCell>
        <mxCell id="wCNE585S87sCHi-Y6KFf-37" value="Registra" style="edgeLabel;html=1;align=center;verticalAlign=middle;resizable=0;points=[];" vertex="1" connectable="0" parent="wCNE585S87sCHi-Y6KFf-32">
          <mxGeometry x="0.0202" y="-3" relative="1" as="geometry">
            <mxPoint as="offset" />
          </mxGeometry>
        </mxCell>
        <mxCell id="wCNE585S87sCHi-Y6KFf-41" value="0..*" style="edgeLabel;html=1;align=center;verticalAlign=middle;resizable=0;points=[];" vertex="1" connectable="0" parent="wCNE585S87sCHi-Y6KFf-32">
          <mxGeometry x="0.8571" y="1" relative="1" as="geometry">
            <mxPoint as="offset" />
          </mxGeometry>
        </mxCell>
        <mxCell id="wCNE585S87sCHi-Y6KFf-33" style="edgeStyle=orthogonalEdgeStyle;rounded=0;orthogonalLoop=1;jettySize=auto;html=1;entryX=0.019;entryY=0.128;entryDx=0;entryDy=0;entryPerimeter=0;" edge="1" parent="1" source="cfNvjKSxgFuLiAWqWSHC-2" target="wCNE585S87sCHi-Y6KFf-30">
          <mxGeometry relative="1" as="geometry" />
        </mxCell>
        <mxCell id="wCNE585S87sCHi-Y6KFf-40" value="Registra" style="edgeLabel;html=1;align=center;verticalAlign=middle;resizable=0;points=[];" vertex="1" connectable="0" parent="wCNE585S87sCHi-Y6KFf-33">
          <mxGeometry x="-0.3778" y="1" relative="1" as="geometry">
            <mxPoint as="offset" />
          </mxGeometry>
        </mxCell>
        <mxCell id="wCNE585S87sCHi-Y6KFf-49" value="1" style="edgeLabel;html=1;align=center;verticalAlign=middle;resizable=0;points=[];" vertex="1" connectable="0" parent="wCNE585S87sCHi-Y6KFf-33">
          <mxGeometry x="-0.9448" y="-1" relative="1" as="geometry">
            <mxPoint as="offset" />
          </mxGeometry>
        </mxCell>
        <mxCell id="wCNE585S87sCHi-Y6KFf-77" value="0..*" style="edgeLabel;html=1;align=center;verticalAlign=middle;resizable=0;points=[];" vertex="1" connectable="0" parent="wCNE585S87sCHi-Y6KFf-33">
          <mxGeometry x="0.9142" y="-1" relative="1" as="geometry">
            <mxPoint as="offset" />
          </mxGeometry>
        </mxCell>
        <mxCell id="wCNE585S87sCHi-Y6KFf-55" style="edgeStyle=orthogonalEdgeStyle;rounded=0;orthogonalLoop=1;jettySize=auto;html=1;entryX=1.008;entryY=0.162;entryDx=0;entryDy=0;entryPerimeter=0;" edge="1" parent="1" source="cfNvjKSxgFuLiAWqWSHC-1" target="wCNE585S87sCHi-Y6KFf-30">
          <mxGeometry relative="1" as="geometry" />
        </mxCell>
        <mxCell id="wCNE585S87sCHi-Y6KFf-58" value="Serializa" style="edgeLabel;html=1;align=center;verticalAlign=middle;resizable=0;points=[];" vertex="1" connectable="0" parent="wCNE585S87sCHi-Y6KFf-55">
          <mxGeometry x="0.6711" y="-3" relative="1" as="geometry">
            <mxPoint as="offset" />
          </mxGeometry>
        </mxCell>
        <mxCell id="wCNE585S87sCHi-Y6KFf-59" value="1" style="edgeLabel;html=1;align=center;verticalAlign=middle;resizable=0;points=[];" vertex="1" connectable="0" parent="wCNE585S87sCHi-Y6KFf-55">
          <mxGeometry x="-0.9448" y="-1" relative="1" as="geometry">
            <mxPoint as="offset" />
          </mxGeometry>
        </mxCell>
        <mxCell id="wCNE585S87sCHi-Y6KFf-64" value="1..*" style="edgeLabel;html=1;align=center;verticalAlign=middle;resizable=0;points=[];" vertex="1" connectable="0" parent="wCNE585S87sCHi-Y6KFf-55">
          <mxGeometry x="0.9463" y="1" relative="1" as="geometry">
            <mxPoint as="offset" />
          </mxGeometry>
        </mxCell>
        <mxCell id="wCNE585S87sCHi-Y6KFf-90" style="edgeStyle=orthogonalEdgeStyle;rounded=0;orthogonalLoop=1;jettySize=auto;html=1;entryX=0;entryY=0.75;entryDx=0;entryDy=0;" edge="1" parent="1" source="wCNE585S87sCHi-Y6KFf-79" target="cfNvjKSxgFuLiAWqWSHC-2">
          <mxGeometry relative="1" as="geometry">
            <mxPoint x="570" y="450" as="targetPoint" />
            <Array as="points">
              <mxPoint x="565" y="340" />
              <mxPoint x="565" y="420" />
              <mxPoint x="790" y="420" />
            </Array>
          </mxGeometry>
        </mxCell>
        <mxCell id="wCNE585S87sCHi-Y6KFf-91" value="1" style="edgeLabel;html=1;align=center;verticalAlign=middle;resizable=0;points=[];" vertex="1" connectable="0" parent="wCNE585S87sCHi-Y6KFf-90">
          <mxGeometry x="-0.9537" y="-1" relative="1" as="geometry">
            <mxPoint as="offset" />
          </mxGeometry>
        </mxCell>
        <mxCell id="wCNE585S87sCHi-Y6KFf-92" value="1" style="edgeLabel;html=1;align=center;verticalAlign=middle;resizable=0;points=[];" vertex="1" connectable="0" parent="wCNE585S87sCHi-Y6KFf-90">
          <mxGeometry x="0.9406" y="-2" relative="1" as="geometry">
            <mxPoint as="offset" />
          </mxGeometry>
        </mxCell>
        <mxCell id="wCNE585S87sCHi-Y6KFf-137" value="Depende" style="edgeLabel;html=1;align=center;verticalAlign=middle;resizable=0;points=[];" vertex="1" connectable="0" parent="wCNE585S87sCHi-Y6KFf-90">
          <mxGeometry x="-0.5637" y="3" relative="1" as="geometry">
            <mxPoint x="-1" as="offset" />
          </mxGeometry>
        </mxCell>
        <mxCell id="wCNE585S87sCHi-Y6KFf-145" style="edgeStyle=elbowEdgeStyle;rounded=0;orthogonalLoop=1;jettySize=auto;html=1;elbow=vertical;entryX=0.75;entryY=1;entryDx=0;entryDy=0;" edge="1" parent="1" target="cfNvjKSxgFuLiAWqWSHC-1">
          <mxGeometry relative="1" as="geometry">
            <mxPoint x="1560" y="950" as="targetPoint" />
            <mxPoint x="50" y="340" as="sourcePoint" />
            <Array as="points">
              <mxPoint x="820" y="930" />
            </Array>
          </mxGeometry>
        </mxCell>
        <mxCell id="wCNE585S87sCHi-Y6KFf-159" value="1" style="edgeLabel;html=1;align=center;verticalAlign=middle;resizable=0;points=[];" vertex="1" connectable="0" parent="wCNE585S87sCHi-Y6KFf-145">
          <mxGeometry x="0.979" relative="1" as="geometry">
            <mxPoint as="offset" />
          </mxGeometry>
        </mxCell>
        <mxCell id="wCNE585S87sCHi-Y6KFf-147" style="edgeStyle=orthogonalEdgeStyle;rounded=0;orthogonalLoop=1;jettySize=auto;html=1;" edge="1" parent="1" source="wCNE585S87sCHi-Y6KFf-79">
          <mxGeometry relative="1" as="geometry">
            <mxPoint x="50" y="340" as="targetPoint" />
          </mxGeometry>
        </mxCell>
        <mxCell id="wCNE585S87sCHi-Y6KFf-151" value="1" style="edgeLabel;html=1;align=center;verticalAlign=middle;resizable=0;points=[];" vertex="1" connectable="0" parent="wCNE585S87sCHi-Y6KFf-147">
          <mxGeometry x="-0.5262" relative="1" as="geometry">
            <mxPoint as="offset" />
          </mxGeometry>
        </mxCell>
        <mxCell id="wCNE585S87sCHi-Y6KFf-155" value="USa" style="edgeLabel;html=1;align=center;verticalAlign=middle;resizable=0;points=[];" vertex="1" connectable="0" parent="wCNE585S87sCHi-Y6KFf-147">
          <mxGeometry x="0.3324" relative="1" as="geometry">
            <mxPoint as="offset" />
          </mxGeometry>
        </mxCell>
        <mxCell id="wCNE585S87sCHi-Y6KFf-79" value="ViewAtividades" style="rounded=0;whiteSpace=wrap;html=1;" vertex="1" parent="1">
          <mxGeometry x="220" y="310" width="120" height="60" as="geometry" />
        </mxCell>
        <mxCell id="wCNE585S87sCHi-Y6KFf-95" style="edgeStyle=orthogonalEdgeStyle;rounded=0;orthogonalLoop=1;jettySize=auto;html=1;" edge="1" parent="1">
          <mxGeometry relative="1" as="geometry">
            <mxPoint x="1510" y="400" as="sourcePoint" />
            <mxPoint x="1204" y="170" as="targetPoint" />
            <Array as="points">
              <mxPoint x="1510" y="170" />
              <mxPoint x="1204" y="170" />
            </Array>
          </mxGeometry>
        </mxCell>
        <mxCell id="wCNE585S87sCHi-Y6KFf-96" value="Serializa" style="edgeLabel;html=1;align=center;verticalAlign=middle;resizable=0;points=[];" vertex="1" connectable="0" parent="wCNE585S87sCHi-Y6KFf-95">
          <mxGeometry x="0.5411" y="2" relative="1" as="geometry">
            <mxPoint as="offset" />
          </mxGeometry>
        </mxCell>
        <mxCell id="wCNE585S87sCHi-Y6KFf-97" value="1..*" style="edgeLabel;html=1;align=center;verticalAlign=middle;resizable=0;points=[];" vertex="1" connectable="0" parent="wCNE585S87sCHi-Y6KFf-95">
          <mxGeometry x="0.9249" y="2" relative="1" as="geometry">
            <mxPoint as="offset" />
          </mxGeometry>
        </mxCell>
        <mxCell id="wCNE585S87sCHi-Y6KFf-119" style="edgeStyle=orthogonalEdgeStyle;rounded=0;orthogonalLoop=1;jettySize=auto;html=1;entryX=0;entryY=0.5;entryDx=0;entryDy=0;" edge="1" parent="1" source="wCNE585S87sCHi-Y6KFf-104" target="cfNvjKSxgFuLiAWqWSHC-2">
          <mxGeometry relative="1" as="geometry">
            <Array as="points">
              <mxPoint x="700" y="156" />
              <mxPoint x="700" y="390" />
              <mxPoint x="790" y="390" />
            </Array>
          </mxGeometry>
        </mxCell>
        <mxCell id="wCNE585S87sCHi-Y6KFf-120" value="Interage" style="edgeLabel;html=1;align=center;verticalAlign=middle;resizable=0;points=[];" vertex="1" connectable="0" parent="wCNE585S87sCHi-Y6KFf-119">
          <mxGeometry x="-0.0639" y="-2" relative="1" as="geometry">
            <mxPoint as="offset" />
          </mxGeometry>
        </mxCell>
        <mxCell id="wCNE585S87sCHi-Y6KFf-121" value="1" style="edgeLabel;html=1;align=center;verticalAlign=middle;resizable=0;points=[];" vertex="1" connectable="0" parent="wCNE585S87sCHi-Y6KFf-119">
          <mxGeometry x="-0.864" relative="1" as="geometry">
            <mxPoint as="offset" />
          </mxGeometry>
        </mxCell>
        <mxCell id="wCNE585S87sCHi-Y6KFf-122" value="1" style="edgeLabel;html=1;align=center;verticalAlign=middle;resizable=0;points=[];" vertex="1" connectable="0" parent="wCNE585S87sCHi-Y6KFf-119">
          <mxGeometry x="0.8594" y="5" relative="1" as="geometry">
            <mxPoint as="offset" />
          </mxGeometry>
        </mxCell>
        <mxCell id="wCNE585S87sCHi-Y6KFf-104" value="Usuario" style="swimlane;fontStyle=1;align=center;verticalAlign=top;childLayout=stackLayout;horizontal=1;startSize=26;horizontalStack=0;resizeParent=1;resizeParentMax=0;resizeLast=0;collapsible=1;marginBottom=0;whiteSpace=wrap;html=1;" vertex="1" parent="1">
          <mxGeometry x="360" y="53" width="250" height="206" as="geometry" />
        </mxCell>
        <mxCell id="wCNE585S87sCHi-Y6KFf-105" value="- List&amp;lt;ContasFIxas&amp;gt;: contaFixa" style="text;strokeColor=none;fillColor=none;align=left;verticalAlign=top;spacingLeft=4;spacingRight=4;overflow=hidden;rotatable=0;points=[[0,0.5],[1,0.5]];portConstraint=eastwest;whiteSpace=wrap;html=1;" vertex="1" parent="wCNE585S87sCHi-Y6KFf-104">
          <mxGeometry y="26" width="250" height="26" as="geometry" />
        </mxCell>
        <mxCell id="wCNE585S87sCHi-Y6KFf-106" value="- List&amp;lt;ContasLuz&amp;gt;: contasLuz" style="text;strokeColor=none;fillColor=none;align=left;verticalAlign=top;spacingLeft=4;spacingRight=4;overflow=hidden;rotatable=0;points=[[0,0.5],[1,0.5]];portConstraint=eastwest;whiteSpace=wrap;html=1;" vertex="1" parent="wCNE585S87sCHi-Y6KFf-104">
          <mxGeometry y="52" width="250" height="26" as="geometry" />
        </mxCell>
        <mxCell id="wCNE585S87sCHi-Y6KFf-107" value="- List&amp;lt;Atividades&amp;gt;: atividade" style="text;strokeColor=none;fillColor=none;align=left;verticalAlign=top;spacingLeft=4;spacingRight=4;overflow=hidden;rotatable=0;points=[[0,0.5],[1,0.5]];portConstraint=eastwest;whiteSpace=wrap;html=1;" vertex="1" parent="wCNE585S87sCHi-Y6KFf-104">
          <mxGeometry y="78" width="250" height="26" as="geometry" />
        </mxCell>
        <mxCell id="wCNE585S87sCHi-Y6KFf-110" value="- List&amp;lt;Eletrodomesticos&amp;gt;: eletrodomestico" style="text;strokeColor=none;fillColor=none;align=left;verticalAlign=top;spacingLeft=4;spacingRight=4;overflow=hidden;rotatable=0;points=[[0,0.5],[1,0.5]];portConstraint=eastwest;whiteSpace=wrap;html=1;" vertex="1" parent="wCNE585S87sCHi-Y6KFf-104">
          <mxGeometry y="104" width="250" height="26" as="geometry" />
        </mxCell>
        <mxCell id="wCNE585S87sCHi-Y6KFf-108" value="" style="line;strokeWidth=1;fillColor=none;align=left;verticalAlign=middle;spacingTop=-1;spacingLeft=3;spacingRight=3;rotatable=0;labelPosition=right;points=[];portConstraint=eastwest;strokeColor=inherit;" vertex="1" parent="wCNE585S87sCHi-Y6KFf-104">
          <mxGeometry y="130" width="250" height="76" as="geometry" />
        </mxCell>
        <mxCell id="wCNE585S87sCHi-Y6KFf-112" value="" style="endArrow=classic;html=1;rounded=0;edgeStyle=elbowEdgeStyle;entryX=-0.022;entryY=0.179;entryDx=0;entryDy=0;entryPerimeter=0;" edge="1" parent="1" target="wCNE585S87sCHi-Y6KFf-7">
          <mxGeometry width="50" height="50" relative="1" as="geometry">
            <mxPoint x="800" y="380" as="sourcePoint" />
            <mxPoint x="1010" y="120" as="targetPoint" />
            <Array as="points">
              <mxPoint x="800" y="210" />
            </Array>
          </mxGeometry>
        </mxCell>
        <mxCell id="wCNE585S87sCHi-Y6KFf-115" value="Simula Valor&amp;nbsp;&lt;br&gt;com base no consumo total&lt;br&gt;de EletrodomÃ©sticos" style="edgeLabel;html=1;align=center;verticalAlign=middle;resizable=0;points=[];" vertex="1" connectable="0" parent="wCNE585S87sCHi-Y6KFf-112">
          <mxGeometry x="0.3143" y="1" relative="1" as="geometry">
            <mxPoint x="-78" y="-9" as="offset" />
          </mxGeometry>
        </mxCell>
        <mxCell id="wCNE585S87sCHi-Y6KFf-116" value="1..*" style="edgeLabel;html=1;align=center;verticalAlign=middle;resizable=0;points=[];" vertex="1" connectable="0" parent="wCNE585S87sCHi-Y6KFf-112">
          <mxGeometry x="0.9027" y="-5" relative="1" as="geometry">
            <mxPoint as="offset" />
          </mxGeometry>
        </mxCell>
        <mxCell id="wCNE585S87sCHi-Y6KFf-113" value="" style="endArrow=classic;html=1;rounded=0;edgeStyle=orthogonalEdgeStyle;elbow=vertical;entryX=0.229;entryY=1.02;entryDx=0;entryDy=0;entryPerimeter=0;" edge="1" parent="1" target="wCNE585S87sCHi-Y6KFf-30">
          <mxGeometry width="50" height="50" relative="1" as="geometry">
            <mxPoint x="800" y="440" as="sourcePoint" />
            <mxPoint x="800" y="830" as="targetPoint" />
            <Array as="points">
              <mxPoint x="810" y="440" />
              <mxPoint x="810" y="830" />
              <mxPoint x="1087" y="830" />
            </Array>
          </mxGeometry>
        </mxCell>
        <mxCell id="wCNE585S87sCHi-Y6KFf-117" value="Simula consumo baseado em tempoDeUso&lt;br&gt;e Watts" style="edgeLabel;html=1;align=center;verticalAlign=middle;resizable=0;points=[];" vertex="1" connectable="0" parent="wCNE585S87sCHi-Y6KFf-113">
          <mxGeometry x="0.0182" y="-2" relative="1" as="geometry">
            <mxPoint x="-3" y="-1" as="offset" />
          </mxGeometry>
        </mxCell>
        <mxCell id="wCNE585S87sCHi-Y6KFf-118" value="1..*" style="edgeLabel;html=1;align=center;verticalAlign=middle;resizable=0;points=[];" vertex="1" connectable="0" parent="wCNE585S87sCHi-Y6KFf-113">
          <mxGeometry x="0.9546" y="2" relative="1" as="geometry">
            <mxPoint as="offset" />
          </mxGeometry>
        </mxCell>
        <mxCell id="wCNE585S87sCHi-Y6KFf-134" style="edgeStyle=orthogonalEdgeStyle;rounded=0;orthogonalLoop=1;jettySize=auto;html=1;entryX=0;entryY=0.75;entryDx=0;entryDy=0;" edge="1" parent="1" source="wCNE585S87sCHi-Y6KFf-126" target="cfNvjKSxgFuLiAWqWSHC-2">
          <mxGeometry relative="1" as="geometry">
            <Array as="points">
              <mxPoint x="565" y="430" />
              <mxPoint x="565" y="420" />
              <mxPoint x="790" y="420" />
            </Array>
          </mxGeometry>
        </mxCell>
        <mxCell id="wCNE585S87sCHi-Y6KFf-138" value="Depende" style="edgeLabel;html=1;align=center;verticalAlign=middle;resizable=0;points=[];" vertex="1" connectable="0" parent="wCNE585S87sCHi-Y6KFf-134">
          <mxGeometry x="-0.534" y="-1" relative="1" as="geometry">
            <mxPoint x="-1" as="offset" />
          </mxGeometry>
        </mxCell>
        <mxCell id="wCNE585S87sCHi-Y6KFf-144" value="1" style="edgeLabel;html=1;align=center;verticalAlign=middle;resizable=0;points=[];" vertex="1" connectable="0" parent="wCNE585S87sCHi-Y6KFf-134">
          <mxGeometry x="-0.9135" relative="1" as="geometry">
            <mxPoint as="offset" />
          </mxGeometry>
        </mxCell>
        <mxCell id="wCNE585S87sCHi-Y6KFf-148" style="edgeStyle=orthogonalEdgeStyle;rounded=0;orthogonalLoop=1;jettySize=auto;html=1;" edge="1" parent="1" source="wCNE585S87sCHi-Y6KFf-126">
          <mxGeometry relative="1" as="geometry">
            <mxPoint x="50" y="430" as="targetPoint" />
          </mxGeometry>
        </mxCell>
        <mxCell id="wCNE585S87sCHi-Y6KFf-152" value="1" style="edgeLabel;html=1;align=center;verticalAlign=middle;resizable=0;points=[];" vertex="1" connectable="0" parent="wCNE585S87sCHi-Y6KFf-148">
          <mxGeometry x="-0.5453" y="2" relative="1" as="geometry">
            <mxPoint as="offset" />
          </mxGeometry>
        </mxCell>
        <mxCell id="wCNE585S87sCHi-Y6KFf-156" value="Usa" style="edgeLabel;html=1;align=center;verticalAlign=middle;resizable=0;points=[];" vertex="1" connectable="0" parent="wCNE585S87sCHi-Y6KFf-148">
          <mxGeometry x="0.4067" y="-2" relative="1" as="geometry">
            <mxPoint as="offset" />
          </mxGeometry>
        </mxCell>
        <mxCell id="wCNE585S87sCHi-Y6KFf-126" value="ViewFixa" style="rounded=0;whiteSpace=wrap;html=1;" vertex="1" parent="1">
          <mxGeometry x="220" y="400" width="120" height="60" as="geometry" />
        </mxCell>
        <mxCell id="wCNE585S87sCHi-Y6KFf-135" style="edgeStyle=orthogonalEdgeStyle;rounded=0;orthogonalLoop=1;jettySize=auto;html=1;entryX=0;entryY=0.75;entryDx=0;entryDy=0;" edge="1" parent="1" source="wCNE585S87sCHi-Y6KFf-127" target="cfNvjKSxgFuLiAWqWSHC-2">
          <mxGeometry relative="1" as="geometry">
            <Array as="points">
              <mxPoint x="565" y="516" />
              <mxPoint x="565" y="420" />
              <mxPoint x="790" y="420" />
            </Array>
          </mxGeometry>
        </mxCell>
        <mxCell id="wCNE585S87sCHi-Y6KFf-139" value="Depende" style="edgeLabel;html=1;align=center;verticalAlign=middle;resizable=0;points=[];" vertex="1" connectable="0" parent="wCNE585S87sCHi-Y6KFf-135">
          <mxGeometry x="-0.6278" y="-2" relative="1" as="geometry">
            <mxPoint x="-1" as="offset" />
          </mxGeometry>
        </mxCell>
        <mxCell id="wCNE585S87sCHi-Y6KFf-142" value="1" style="edgeLabel;html=1;align=center;verticalAlign=middle;resizable=0;points=[];" vertex="1" connectable="0" parent="wCNE585S87sCHi-Y6KFf-135">
          <mxGeometry x="-0.9284" y="5" relative="1" as="geometry">
            <mxPoint x="-1" as="offset" />
          </mxGeometry>
        </mxCell>
        <mxCell id="wCNE585S87sCHi-Y6KFf-149" style="edgeStyle=orthogonalEdgeStyle;rounded=0;orthogonalLoop=1;jettySize=auto;html=1;" edge="1" parent="1" source="wCNE585S87sCHi-Y6KFf-127">
          <mxGeometry relative="1" as="geometry">
            <mxPoint x="50" y="516" as="targetPoint" />
          </mxGeometry>
        </mxCell>
        <mxCell id="wCNE585S87sCHi-Y6KFf-153" value="1" style="edgeLabel;html=1;align=center;verticalAlign=middle;resizable=0;points=[];" vertex="1" connectable="0" parent="wCNE585S87sCHi-Y6KFf-149">
          <mxGeometry x="-0.45" relative="1" as="geometry">
            <mxPoint as="offset" />
          </mxGeometry>
        </mxCell>
        <mxCell id="wCNE585S87sCHi-Y6KFf-157" value="Usa" style="edgeLabel;html=1;align=center;verticalAlign=middle;resizable=0;points=[];" vertex="1" connectable="0" parent="wCNE585S87sCHi-Y6KFf-149">
          <mxGeometry x="0.3569" y="3" relative="1" as="geometry">
            <mxPoint as="offset" />
          </mxGeometry>
        </mxCell>
        <mxCell id="wCNE585S87sCHi-Y6KFf-127" value="ViewEletrodomesticos" style="rounded=0;whiteSpace=wrap;html=1;" vertex="1" parent="1">
          <mxGeometry x="220" y="486" width="120" height="60" as="geometry" />
        </mxCell>
        <mxCell id="wCNE585S87sCHi-Y6KFf-136" style="edgeStyle=orthogonalEdgeStyle;rounded=0;orthogonalLoop=1;jettySize=auto;html=1;entryX=0;entryY=0.75;entryDx=0;entryDy=0;" edge="1" parent="1" source="wCNE585S87sCHi-Y6KFf-128" target="cfNvjKSxgFuLiAWqWSHC-2">
          <mxGeometry relative="1" as="geometry">
            <Array as="points">
              <mxPoint x="565" y="602" />
              <mxPoint x="565" y="420" />
              <mxPoint x="790" y="420" />
            </Array>
          </mxGeometry>
        </mxCell>
        <mxCell id="wCNE585S87sCHi-Y6KFf-140" value="Depende" style="edgeLabel;html=1;align=center;verticalAlign=middle;resizable=0;points=[];" vertex="1" connectable="0" parent="wCNE585S87sCHi-Y6KFf-136">
          <mxGeometry x="-0.6703" y="4" relative="1" as="geometry">
            <mxPoint x="-1" as="offset" />
          </mxGeometry>
        </mxCell>
        <mxCell id="wCNE585S87sCHi-Y6KFf-143" value="1" style="edgeLabel;html=1;align=center;verticalAlign=middle;resizable=0;points=[];" vertex="1" connectable="0" parent="wCNE585S87sCHi-Y6KFf-136">
          <mxGeometry x="-0.9552" y="-3" relative="1" as="geometry">
            <mxPoint x="-1" as="offset" />
          </mxGeometry>
        </mxCell>
        <mxCell id="wCNE585S87sCHi-Y6KFf-150" style="edgeStyle=orthogonalEdgeStyle;rounded=0;orthogonalLoop=1;jettySize=auto;html=1;" edge="1" parent="1" source="wCNE585S87sCHi-Y6KFf-128">
          <mxGeometry relative="1" as="geometry">
            <mxPoint x="50" y="600" as="targetPoint" />
            <Array as="points">
              <mxPoint x="150" y="600" />
              <mxPoint x="150" y="600" />
            </Array>
          </mxGeometry>
        </mxCell>
        <mxCell id="wCNE585S87sCHi-Y6KFf-154" value="1" style="edgeLabel;html=1;align=center;verticalAlign=middle;resizable=0;points=[];" vertex="1" connectable="0" parent="wCNE585S87sCHi-Y6KFf-150">
          <mxGeometry x="-0.5311" y="-2" relative="1" as="geometry">
            <mxPoint as="offset" />
          </mxGeometry>
        </mxCell>
        <mxCell id="wCNE585S87sCHi-Y6KFf-158" value="Usa" style="edgeLabel;html=1;align=center;verticalAlign=middle;resizable=0;points=[];" vertex="1" connectable="0" parent="wCNE585S87sCHi-Y6KFf-150">
          <mxGeometry x="0.3618" y="-3" relative="1" as="geometry">
            <mxPoint as="offset" />
          </mxGeometry>
        </mxCell>
        <mxCell id="wCNE585S87sCHi-Y6KFf-128" value="ViewEletricidade" style="rounded=0;whiteSpace=wrap;html=1;" vertex="1" parent="1">
          <mxGeometry x="220" y="572" width="120" height="60" as="geometry" />
        </mxCell>
      </root>
    </mxGraphModel>
  </diagram>
</mxfile>
